<svg xmlns="http://www.w3.org/2000/svg" width="21.6" height="19.824" viewBox="0 0 21.6 19.824">
  <g id="share_icon" data-name="share icon" transform="translate(-297.996 -34.842)">
    <path id="Path_1342" data-name="Path 1342" d="M313.663,47.3a4,4,0,0,0-1.845,2.466l-6.078-.105a4,4,0,0,0-.383-.928,4.715,4.715,0,0,0-.623-.812l2.884-5.344a3.942,3.942,0,1,0-2.336-1.8,3.552,3.552,0,0,0,.634.807l-2.884,5.349a3.874,3.874,0,0,0-3.075.367,3.952,3.952,0,0,0,3.984,6.825,4.016,4.016,0,0,0,1.842-2.49l6.067.111a3.743,3.743,0,0,0,.394.958,3.948,3.948,0,1,0,1.419-5.4Z" transform="translate(0 0)" fill="#fdfaf9"/>
  </g>
</svg>
