<svg xmlns="http://www.w3.org/2000/svg" width="19.5" height="19.5" viewBox="0 0 19.5 19.5">
  <path id="Icon_simple-instagram" data-name="Icon simple-instagram" d="M9.75,0C7.1,0,6.771.012,5.731.059A7.189,7.189,0,0,0,3.364.512,4.775,4.775,0,0,0,1.636,1.636,4.757,4.757,0,0,0,.512,3.364,7.168,7.168,0,0,0,.059,5.731C.01,6.771,0,7.1,0,9.75s.012,2.979.059,4.019a7.194,7.194,0,0,0,.453,2.367,4.781,4.781,0,0,0,1.124,1.727,4.768,4.768,0,0,0,1.727,1.125,7.2,7.2,0,0,0,2.367.453c1.04.049,1.371.058,4.019.058s2.979-.012,4.019-.059a7.215,7.215,0,0,0,2.367-.453,4.983,4.983,0,0,0,2.852-2.852,7.194,7.194,0,0,0,.453-2.367c.049-1.04.059-1.371.059-4.019s-.012-2.979-.059-4.019a7.21,7.21,0,0,0-.453-2.367,4.785,4.785,0,0,0-1.125-1.727A4.75,4.75,0,0,0,16.136.512,7.173,7.173,0,0,0,13.769.058C12.729.01,12.4,0,9.75,0Zm0,1.755c2.6,0,2.913.013,3.941.058A5.372,5.372,0,0,1,15.5,2.15,3.209,3.209,0,0,1,17.351,4a5.383,5.383,0,0,1,.336,1.809c.046,1.029.057,1.337.057,3.941s-.012,2.913-.06,3.941a5.487,5.487,0,0,1-.342,1.809,3.1,3.1,0,0,1-.73,1.123,3.042,3.042,0,0,1-1.121.728,5.423,5.423,0,0,1-1.816.336c-1.035.046-1.34.057-3.948.057s-2.914-.012-3.948-.06a5.529,5.529,0,0,1-1.817-.342,3.019,3.019,0,0,1-1.12-.73,2.961,2.961,0,0,1-.731-1.121,5.533,5.533,0,0,1-.341-1.816c-.037-1.024-.05-1.34-.05-3.936s.013-2.914.05-3.95a5.527,5.527,0,0,1,.341-1.815,2.89,2.89,0,0,1,.731-1.122,2.884,2.884,0,0,1,1.12-.73,5.4,5.4,0,0,1,1.8-.342c1.036-.037,1.341-.049,3.948-.049l.037.024Zm0,2.988A5.007,5.007,0,1,0,14.757,9.75,5.006,5.006,0,0,0,9.75,4.743ZM9.75,13A3.25,3.25,0,1,1,13,9.75,3.249,3.249,0,0,1,9.75,13Zm6.375-8.454a1.17,1.17,0,1,1-1.17-1.169A1.171,1.171,0,0,1,16.125,4.546Z" fill="#fff"/>
</svg>
